<svg width="210" height="210" viewBox="0 0 210 210" fill="none" xmlns="http://www.w3.org/2000/svg">
<path d="M90.6789 197.504C85.9012 190.805 87.5503 181.662 94.3622 177.084C101.174 172.505 110.569 174.225 115.347 180.924C120.125 187.623 118.476 196.766 111.664 201.345C104.852 205.923 95.4567 204.204 90.6789 197.504Z" fill="#F2F2F2" stroke="white" stroke-width="8.5" stroke-linecap="round" stroke-linejoin="round"/>
<path d="M121.513 120.054C116.735 113.354 118.384 104.212 125.196 99.633C132.008 95.0545 141.403 96.7739 146.181 103.473C150.959 110.173 149.31 119.315 142.498 123.894C135.686 128.472 126.291 126.753 121.513 120.054Z" fill="#F2F2F2" stroke="white" stroke-width="8.5" stroke-linecap="round" stroke-linejoin="round"/>
<path d="M43.2395 115.915C38.4618 109.216 40.1108 100.073 46.9228 95.4946C53.7347 90.9161 63.13 92.6354 67.9078 99.3349C72.6855 106.034 71.0364 115.177 64.2245 119.755C57.4125 124.334 48.0172 122.615 43.2395 115.915Z" fill="#F2F2F2" stroke="white" stroke-width="8.5" stroke-linecap="round" stroke-linejoin="round"/>
<path d="M88.6516 28.7108C83.8739 22.0113 85.523 12.8688 92.3349 8.29025C99.1469 3.71175 108.542 5.4311 113.32 12.1306C118.098 18.83 116.449 27.9726 109.637 32.5511C102.825 37.1296 93.4293 35.4102 88.6516 28.7108Z" fill="#F2F2F2" stroke="white" stroke-width="8.5" stroke-linecap="round" stroke-linejoin="round"/>
<path d="M108.285 175.521L127.842 125.152L108.285 175.521ZM118.917 109.598L70.5723 108.861L118.917 109.598ZM62.4439 94.6571L94.4085 33.5464L62.4439 94.6571Z" fill="#F2F2F2"/>
<path d="M108.285 175.521L127.842 125.152M118.917 109.598L70.5723 108.861M62.4439 94.6571L94.4085 33.5464" stroke="white" stroke-width="8.5" stroke-linecap="round" stroke-linejoin="round"/>
<path d="M39.372 151.613L39.252 148.013L56.212 130.573H59.612L47.252 143.533L45.572 145.333L39.372 151.613ZM36.812 158.573V130.573H39.772V158.573H36.812ZM56.932 158.573L44.852 144.653L46.852 142.493L60.452 158.573H56.932ZM72.2329 158.773C70.2062 158.773 68.3796 158.319 66.7529 157.413C65.1529 156.479 63.8862 155.213 62.9529 153.613C62.0196 151.986 61.5529 150.133 61.5529 148.053C61.5529 145.946 62.0196 144.093 62.9529 142.493C63.8862 140.893 65.1529 139.639 66.7529 138.733C68.3529 137.826 70.1796 137.373 72.2329 137.373C74.3129 137.373 76.1529 137.826 77.7529 138.733C79.3796 139.639 80.6462 140.893 81.5529 142.493C82.4862 144.093 82.9529 145.946 82.9529 148.053C82.9529 150.133 82.4862 151.986 81.5529 153.613C80.6462 155.213 79.3796 156.479 77.7529 157.413C76.1262 158.319 74.2862 158.773 72.2329 158.773ZM72.2329 156.253C73.7529 156.253 75.0996 155.919 76.2729 155.253C77.4462 154.559 78.3662 153.599 79.0329 152.373C79.7262 151.119 80.0729 149.679 80.0729 148.053C80.0729 146.399 79.7262 144.959 79.0329 143.733C78.3662 142.506 77.4462 141.559 76.2729 140.893C75.0996 140.199 73.7662 139.853 72.2729 139.853C70.7796 139.853 69.4462 140.199 68.2729 140.893C67.0996 141.559 66.1662 142.506 65.4729 143.733C64.7796 144.959 64.4329 146.399 64.4329 148.053C64.4329 149.679 64.7796 151.119 65.4729 152.373C66.1662 153.599 67.0996 154.559 68.2729 155.253C69.4462 155.919 70.7662 156.253 72.2329 156.253ZM88.751 158.573V128.893H91.591V158.573H88.751Z" fill="white"/>
<path d="M112.44 85.0002V61.4002H103.16V57.0002H126.92V61.4002H117.64V85.0002H112.44ZM138.195 85.2802C135.822 85.2802 133.742 84.8136 131.955 83.8802C130.195 82.9202 128.822 81.6136 127.835 79.9602C126.875 78.3069 126.395 76.4269 126.395 74.3202C126.395 72.1869 126.862 70.3069 127.795 68.6802C128.755 67.0269 130.062 65.7336 131.715 64.8002C133.395 63.8669 135.302 63.4002 137.435 63.4002C139.515 63.4002 141.368 63.8536 142.995 64.7602C144.622 65.6669 145.902 66.9469 146.835 68.6002C147.768 70.2536 148.235 72.2002 148.235 74.4402C148.235 74.6536 148.222 74.8936 148.195 75.1602C148.195 75.4269 148.182 75.6802 148.155 75.9202H130.355V72.6002H145.515L143.555 73.6402C143.582 72.4136 143.328 71.3336 142.795 70.4002C142.262 69.4669 141.528 68.7336 140.595 68.2002C139.688 67.6669 138.635 67.4002 137.435 67.4002C136.208 67.4002 135.128 67.6669 134.195 68.2002C133.288 68.7336 132.568 69.4802 132.035 70.4402C131.528 71.3736 131.275 72.4802 131.275 73.7602V74.5602C131.275 75.8402 131.568 76.9736 132.155 77.9602C132.742 78.9469 133.568 79.7069 134.635 80.2402C135.702 80.7736 136.928 81.0402 138.315 81.0402C139.515 81.0402 140.595 80.8536 141.555 80.4802C142.515 80.1069 143.368 79.5202 144.115 78.7202L146.795 81.8002C145.835 82.9202 144.622 83.7869 143.155 84.4002C141.715 84.9869 140.062 85.2802 138.195 85.2802ZM162.838 85.2802C160.598 85.2802 158.598 84.8136 156.838 83.8802C155.104 82.9202 153.744 81.6136 152.758 79.9602C151.771 78.3069 151.278 76.4269 151.278 74.3202C151.278 72.1869 151.771 70.3069 152.758 68.6802C153.744 67.0269 155.104 65.7336 156.838 64.8002C158.598 63.8669 160.598 63.4002 162.838 63.4002C164.918 63.4002 166.744 63.8269 168.318 64.6802C169.918 65.5069 171.131 66.7336 171.958 68.3602L168.118 70.6002C167.478 69.5869 166.691 68.8402 165.758 68.3602C164.851 67.8802 163.864 67.6402 162.798 67.6402C161.571 67.6402 160.464 67.9069 159.478 68.4402C158.491 68.9736 157.718 69.7469 157.158 70.7602C156.598 71.7469 156.318 72.9336 156.318 74.3202C156.318 75.7069 156.598 76.9069 157.158 77.9202C157.718 78.9069 158.491 79.6669 159.478 80.2002C160.464 80.7336 161.571 81.0002 162.798 81.0002C163.864 81.0002 164.851 80.7602 165.758 80.2802C166.691 79.8002 167.478 79.0536 168.118 78.0402L171.958 80.2802C171.131 81.8802 169.918 83.1202 168.318 84.0002C166.744 84.8536 164.918 85.2802 162.838 85.2802ZM188.205 63.4002C189.911 63.4002 191.431 63.7336 192.765 64.4002C194.125 65.0669 195.191 66.0936 195.965 67.4802C196.738 68.8402 197.125 70.6002 197.125 72.7602V85.0002H192.125V73.4002C192.125 71.5069 191.671 70.0936 190.765 69.1602C189.885 68.2269 188.645 67.7602 187.045 67.7602C185.871 67.7602 184.831 68.0002 183.925 68.4802C183.018 68.9602 182.311 69.6802 181.805 70.6402C181.325 71.5736 181.085 72.7602 181.085 74.2002V85.0002H176.085V55.3202H181.085V69.4002L180.005 67.6402C180.751 66.2802 181.831 65.2402 183.245 64.5202C184.685 63.7736 186.338 63.4002 188.205 63.4002Z" fill="white"/>
</svg>
