<svg width="78" height="34" viewBox="0 0 78 34" fill="none" xmlns="http://www.w3.org/2000/svg">
<path d="M6.81602 9.3C7.78268 9.3 8.64102 9.48333 9.39102 9.85C10.141 10.2167 10.716 10.725 11.116 11.375C11.5327 12.0083 11.741 12.725 11.741 13.525C11.741 14.4083 11.5243 15.2083 11.091 15.925C10.6577 16.6417 10.0577 17.2083 9.29102 17.625C8.54102 18.025 7.69935 18.225 6.76602 18.225C6.21602 18.225 5.61602 18.2 4.96602 18.15C4.73268 18.1333 4.45768 18.1167 4.14102 18.1C3.82435 18.0833 3.47435 18.075 3.09102 18.075L1.39102 18.1C1.09102 18.1167 0.666016 18.125 0.116016 18.125C0.0826823 18.125 0.0660157 18.075 0.0660157 17.975C0.0660157 17.875 0.0826823 17.825 0.116016 17.825C0.749349 17.825 1.21602 17.7833 1.51602 17.7C1.81602 17.6 2.02435 17.4333 2.14102 17.2C2.25768 16.9667 2.31602 16.6 2.31602 16.1V4.525C2.31602 4.025 2.25768 3.65833 2.14102 3.425C2.04102 3.19167 1.84102 3.03333 1.54102 2.95C1.24102 2.85 0.782682 2.8 0.166016 2.8C0.116016 2.8 0.0910157 2.75 0.0910157 2.65C0.0910157 2.55 0.116016 2.5 0.166016 2.5L1.39102 2.525C2.09102 2.55833 2.65768 2.575 3.09102 2.575C3.39102 2.575 3.66602 2.56667 3.91602 2.55C4.18268 2.53333 4.40768 2.51667 4.59102 2.5C5.12435 2.45 5.60768 2.425 6.04102 2.425C7.44102 2.425 8.49102 2.73333 9.19102 3.35C9.89102 3.95 10.241 4.74167 10.241 5.725C10.241 6.65833 9.89935 7.46667 9.21602 8.15C8.54935 8.81667 7.65768 9.29167 6.54102 9.575L6.81602 9.3ZM5.49102 2.8C5.04102 2.8 4.71602 2.83333 4.51602 2.9C4.31602 2.96667 4.16602 3.125 4.06602 3.375C3.96602 3.625 3.91602 4.025 3.91602 4.575V9.475L3.11602 9.275C3.83268 9.325 4.47435 9.35 5.04102 9.35C6.25768 9.35 7.15768 9.04167 7.74102 8.425C8.32435 7.79167 8.61602 6.95833 8.61602 5.925C8.61602 4.99167 8.35768 4.24167 7.84102 3.675C7.34102 3.09167 6.55768 2.8 5.49102 2.8ZM6.39102 17.775C7.60768 17.775 8.50768 17.4667 9.09102 16.85C9.69102 16.2167 9.99102 15.3167 9.99102 14.15C9.99102 12.8833 9.61602 11.8583 8.86602 11.075C8.13268 10.2917 7.11602 9.89167 5.81602 9.875C4.86602 9.84167 3.99102 9.88333 3.19102 10L3.91602 9.725V16.1C3.91602 16.5333 3.97435 16.8667 4.09102 17.1C4.22435 17.3333 4.46602 17.5083 4.81602 17.625C5.18268 17.725 5.70768 17.775 6.39102 17.775ZM18.4564 18.425C17.4898 18.425 16.6648 18.2 15.9814 17.75C15.2981 17.3 14.7731 16.7083 14.4064 15.975C14.0564 15.2417 13.8814 14.4583 13.8814 13.625C13.8814 12.6417 14.1148 11.7417 14.5814 10.925C15.0481 10.0917 15.6814 9.44167 16.4814 8.975C17.2981 8.49167 18.1898 8.25 19.1564 8.25C20.0898 8.25 20.8064 8.5 21.3064 9C21.8064 9.5 22.0564 10.2 22.0564 11.1C22.0564 11.3333 22.0314 11.5 21.9814 11.6C21.9481 11.7 21.8731 11.75 21.7564 11.75H20.3564L20.3814 11.3C20.3814 10.4667 20.1981 9.83333 19.8314 9.4C19.4648 8.96667 18.9648 8.75 18.3314 8.75C17.4481 8.75 16.7564 9.1 16.2564 9.8C15.7731 10.5 15.5314 11.4583 15.5314 12.675C15.5314 14.125 15.8731 15.3 16.5564 16.2C17.2398 17.1 18.1981 17.55 19.4314 17.55C19.9314 17.55 20.3564 17.4833 20.7064 17.35C21.0731 17.2167 21.4814 17.0083 21.9314 16.725H21.9564C22.0064 16.725 22.0481 16.7583 22.0814 16.825C22.1314 16.875 22.1398 16.925 22.1064 16.975C20.9731 17.9417 19.7564 18.425 18.4564 18.425ZM15.0564 11.45L20.7314 11.35V11.75L15.0814 11.775L15.0564 11.45ZM24.1865 18.125C24.1365 18.125 24.1115 18.075 24.1115 17.975C24.1115 17.875 24.1365 17.825 24.1865 17.825C24.6365 17.825 24.9699 17.7833 25.1865 17.7C25.4032 17.6 25.5532 17.4333 25.6365 17.2C25.7199 16.95 25.7615 16.5833 25.7615 16.1V3.175C25.7615 2.575 25.7032 2.14167 25.5865 1.875C25.4699 1.60833 25.2615 1.475 24.9615 1.475C24.7115 1.475 24.3282 1.59167 23.8115 1.825H23.7615C23.7115 1.825 23.6699 1.78333 23.6365 1.7C23.6199 1.61667 23.6365 1.56667 23.6865 1.55L26.8865 0.0249991C26.9199 0.00833263 26.9615 -5.96046e-07 27.0115 -5.96046e-07C27.0615 -5.96046e-07 27.1115 0.0249991 27.1615 0.0749984C27.2115 0.108332 27.2365 0.149999 27.2365 0.2V16.1C27.2365 16.5833 27.2699 16.9417 27.3365 17.175C27.4199 17.4083 27.5699 17.575 27.7865 17.675C28.0032 17.775 28.3365 17.825 28.7865 17.825C28.8365 17.825 28.8615 17.875 28.8615 17.975C28.8615 18.075 28.8365 18.125 28.7865 18.125C28.4199 18.125 28.1199 18.1167 27.8865 18.1L26.4865 18.075L25.1365 18.1C24.9032 18.1167 24.5865 18.125 24.1865 18.125ZM30.6318 18.125C30.5818 18.125 30.5568 18.075 30.5568 17.975C30.5568 17.875 30.5818 17.825 30.6318 17.825C31.0818 17.825 31.4152 17.7833 31.6318 17.7C31.8485 17.6 31.9985 17.4333 32.0818 17.2C32.1652 16.95 32.2068 16.5833 32.2068 16.1V3.175C32.2068 2.575 32.1485 2.14167 32.0318 1.875C31.9152 1.60833 31.7068 1.475 31.4068 1.475C31.1568 1.475 30.7735 1.59167 30.2568 1.825H30.2068C30.1568 1.825 30.1152 1.78333 30.0818 1.7C30.0652 1.61667 30.0818 1.56667 30.1318 1.55L33.3318 0.0249991C33.3652 0.00833263 33.4068 -5.96046e-07 33.4568 -5.96046e-07C33.5068 -5.96046e-07 33.5568 0.0249991 33.6068 0.0749984C33.6568 0.108332 33.6818 0.149999 33.6818 0.2V16.1C33.6818 16.5833 33.7152 16.9417 33.7818 17.175C33.8652 17.4083 34.0152 17.575 34.2318 17.675C34.4485 17.775 34.7818 17.825 35.2318 17.825C35.2818 17.825 35.3068 17.875 35.3068 17.975C35.3068 18.075 35.2818 18.125 35.2318 18.125C34.8652 18.125 34.5652 18.1167 34.3318 18.1L32.9318 18.075L31.5818 18.1C31.3485 18.1167 31.0318 18.125 30.6318 18.125ZM41.5521 18.425C40.5855 18.425 39.7605 18.2 39.0771 17.75C38.3938 17.3 37.8688 16.7083 37.5021 15.975C37.1521 15.2417 36.9771 14.4583 36.9771 13.625C36.9771 12.6417 37.2105 11.7417 37.6771 10.925C38.1438 10.0917 38.7771 9.44167 39.5771 8.975C40.3938 8.49167 41.2855 8.25 42.2521 8.25C43.1855 8.25 43.9021 8.5 44.4021 9C44.9021 9.5 45.1521 10.2 45.1521 11.1C45.1521 11.3333 45.1271 11.5 45.0771 11.6C45.0438 11.7 44.9688 11.75 44.8521 11.75H43.4521L43.4771 11.3C43.4771 10.4667 43.2938 9.83333 42.9271 9.4C42.5605 8.96667 42.0605 8.75 41.4271 8.75C40.5438 8.75 39.8521 9.1 39.3521 9.8C38.8688 10.5 38.6271 11.4583 38.6271 12.675C38.6271 14.125 38.9688 15.3 39.6521 16.2C40.3355 17.1 41.2938 17.55 42.5271 17.55C43.0271 17.55 43.4521 17.4833 43.8021 17.35C44.1688 17.2167 44.5771 17.0083 45.0271 16.725H45.0521C45.1021 16.725 45.1438 16.7583 45.1771 16.825C45.2271 16.875 45.2355 16.925 45.2021 16.975C44.0688 17.9417 42.8521 18.425 41.5521 18.425ZM38.1521 11.45L43.8271 11.35V11.75L38.1771 11.775L38.1521 11.45ZM53.3322 8.975C53.3822 8.85833 53.3406 8.8 53.2072 8.8C51.9072 8.8 50.8989 8.85833 50.1822 8.975C49.4656 9.075 48.8989 9.28333 48.4822 9.6C48.0822 9.91667 47.7906 10.3917 47.6072 11.025C47.6072 11.0583 47.5739 11.075 47.5072 11.075C47.4572 11.075 47.4072 11.0667 47.3572 11.05C47.3239 11.0167 47.3156 10.9917 47.3322 10.975L48.1822 7.75C48.1989 7.71667 48.2489 7.70833 48.3322 7.725C48.4322 7.725 48.4739 7.74167 48.4572 7.775C48.4406 7.825 48.4322 7.89167 48.4322 7.975C48.4322 8.175 48.5239 8.30833 48.7072 8.375C48.8906 8.44167 49.2072 8.475 49.6572 8.475H54.9572C55.0239 8.475 55.0739 8.50833 55.1072 8.575C55.1572 8.64167 55.1739 8.70833 55.1572 8.775L49.2572 17.575C49.1906 17.6917 49.2322 17.75 49.3822 17.75C51.0156 17.75 52.1739 17.7 52.8572 17.6C53.5572 17.5 54.0656 17.2917 54.3822 16.975C54.6989 16.6417 54.9822 16.075 55.2322 15.275C55.2489 15.2417 55.2989 15.225 55.3822 15.225C55.4656 15.225 55.5072 15.2417 55.5072 15.275L55.4572 17.85C55.4572 17.9167 55.4322 17.9833 55.3822 18.05C55.3489 18.1 55.2989 18.125 55.2322 18.125H47.5072C47.4406 18.125 47.3822 18.0917 47.3322 18.025C47.2989 17.9583 47.2989 17.8917 47.3322 17.825L53.3322 8.975ZM63.4641 8.975C63.5141 8.85833 63.4724 8.8 63.3391 8.8C62.0391 8.8 61.0307 8.85833 60.3141 8.975C59.5974 9.075 59.0307 9.28333 58.6141 9.6C58.2141 9.91667 57.9224 10.3917 57.7391 11.025C57.7391 11.0583 57.7057 11.075 57.6391 11.075C57.5891 11.075 57.5391 11.0667 57.4891 11.05C57.4557 11.0167 57.4474 10.9917 57.4641 10.975L58.3141 7.75C58.3307 7.71667 58.3807 7.70833 58.4641 7.725C58.5641 7.725 58.6057 7.74167 58.5891 7.775C58.5724 7.825 58.5641 7.89167 58.5641 7.975C58.5641 8.175 58.6557 8.30833 58.8391 8.375C59.0224 8.44167 59.3391 8.475 59.7891 8.475H65.0891C65.1557 8.475 65.2057 8.50833 65.2391 8.575C65.2891 8.64167 65.3057 8.70833 65.2891 8.775L59.3891 17.575C59.3224 17.6917 59.3641 17.75 59.5141 17.75C61.1474 17.75 62.3057 17.7 62.9891 17.6C63.6891 17.5 64.1974 17.2917 64.5141 16.975C64.8307 16.6417 65.1141 16.075 65.3641 15.275C65.3807 15.2417 65.4307 15.225 65.5141 15.225C65.5974 15.225 65.6391 15.2417 65.6391 15.275L65.5891 17.85C65.5891 17.9167 65.5641 17.9833 65.5141 18.05C65.4807 18.1 65.4307 18.125 65.3641 18.125H57.6391C57.5724 18.125 57.5141 18.0917 57.4641 18.025C57.4307 17.9583 57.4307 17.8917 57.4641 17.825L63.4641 8.975ZM74.3959 18.275C74.3292 18.3083 74.2626 18.325 74.1959 18.325C73.9459 18.325 73.7292 18.1333 73.5459 17.75C73.3626 17.3667 73.2709 16.8583 73.2709 16.225V11.5C73.2709 9.63333 72.7459 8.7 71.6959 8.7C71.1292 8.7 70.6959 8.89167 70.3959 9.275C70.1126 9.64167 69.9209 10.0667 69.8209 10.55C69.7542 10.8667 69.6542 11.1167 69.5209 11.3C69.4042 11.4833 69.1876 11.575 68.8709 11.575C68.6042 11.575 68.3959 11.5 68.2459 11.35C68.1126 11.2 68.0459 11.025 68.0459 10.825C68.0459 10.425 68.3042 10.025 68.8209 9.625C69.3376 9.225 69.9542 8.89167 70.6709 8.625C71.3876 8.35833 72.0292 8.225 72.5959 8.225C73.2792 8.225 73.7959 8.44167 74.1459 8.875C74.4959 9.30833 74.6709 9.93333 74.6709 10.75V15.425C74.6709 16.0083 74.7459 16.4333 74.8959 16.7C75.0459 16.9667 75.2876 17.1 75.6209 17.1C75.9542 17.1 76.3709 16.9917 76.8709 16.775H76.9209C76.9876 16.775 77.0292 16.8167 77.0459 16.9C77.0626 16.9667 77.0376 17.0167 76.9709 17.05L74.3959 18.275ZM69.8959 18.3C69.2792 18.3 68.7959 18.1417 68.4459 17.825C68.1126 17.4917 67.9459 17.075 67.9459 16.575C67.9459 16.075 68.1459 15.6417 68.5459 15.275C68.9459 14.9083 69.6042 14.5583 70.5209 14.225L73.5209 13.1L73.5959 13.425L70.9459 14.45C70.4792 14.6333 70.1376 14.85 69.9209 15.1C69.7209 15.3333 69.6209 15.6167 69.6209 15.95C69.6209 16.35 69.7459 16.6917 69.9959 16.975C70.2626 17.2417 70.6042 17.375 71.0209 17.375C71.3542 17.375 71.7542 17.2417 72.2209 16.975L73.7959 16.025L73.8459 16.35L71.9959 17.55C71.5792 17.8167 71.2126 18.0083 70.8959 18.125C70.5792 18.2417 70.2459 18.3 69.8959 18.3Z" fill="black"/>
<path d="M-0.000177532 33.125V24.3977H5.47141V25.5312H1.31658V28.1903H5.1859V29.3196H1.31658V31.9915H5.52255V33.125H-0.000177532ZM14.9902 26.6903C14.9448 26.2869 14.7573 25.9744 14.4277 25.7528C14.0982 25.5284 13.6834 25.4162 13.1834 25.4162C12.8255 25.4162 12.5158 25.473 12.2544 25.5866C11.9931 25.6974 11.79 25.8509 11.6451 26.0469C11.503 26.2401 11.432 26.4602 11.432 26.7074C11.432 26.9148 11.4803 27.0937 11.5769 27.2443C11.6763 27.3949 11.8056 27.5213 11.9647 27.6236C12.1266 27.723 12.2999 27.8068 12.4846 27.875C12.6692 27.9403 12.8468 27.9943 13.0172 28.0369L13.8695 28.2585C14.1479 28.3267 14.4334 28.419 14.726 28.5355C15.0186 28.652 15.29 28.8054 15.54 28.9957C15.79 29.1861 15.9917 29.4219 16.1451 29.7031C16.3013 29.9844 16.3794 30.321 16.3794 30.7131C16.3794 31.2074 16.2516 31.6463 15.9959 32.0298C15.7431 32.4134 15.3752 32.7159 14.8922 32.9375C14.4121 33.1591 13.8311 33.2699 13.1493 33.2699C12.4959 33.2699 11.9306 33.1662 11.4533 32.9588C10.976 32.7514 10.6025 32.4574 10.3326 32.0767C10.0627 31.6932 9.91353 31.2386 9.88512 30.7131H11.2061C11.2317 31.0284 11.334 31.2912 11.513 31.5014C11.6948 31.7088 11.9263 31.8636 12.2076 31.9659C12.4917 32.0653 12.8027 32.1151 13.1408 32.1151C13.513 32.1151 13.8439 32.0568 14.1337 31.9403C14.4263 31.821 14.6564 31.6562 14.824 31.446C14.9917 31.233 15.0755 30.9844 15.0755 30.7003C15.0755 30.4418 15.0016 30.2301 14.8539 30.0653C14.709 29.9006 14.5115 29.7642 14.2615 29.6562C14.0144 29.5483 13.7346 29.4531 13.4221 29.3707L12.3908 29.0895C11.6919 28.8991 11.138 28.6193 10.7289 28.25C10.3226 27.8807 10.1195 27.392 10.1195 26.7841C10.1195 26.2812 10.2559 25.8423 10.5286 25.4673C10.8013 25.0923 11.1706 24.8011 11.6365 24.5938C12.1025 24.3835 12.628 24.2784 13.2132 24.2784C13.8042 24.2784 14.3255 24.3821 14.7772 24.5895C15.2317 24.7969 15.5897 25.0824 15.851 25.446C16.1124 25.8068 16.2488 26.2216 16.2601 26.6903H14.9902ZM20.5225 25.5312V24.3977H27.2768V25.5312H24.5538V33.125H23.2413V25.5312H20.5225ZM31.7694 33.125V24.3977H37.2409V25.5312H33.0861V28.1903H36.9554V29.3196H33.0861V31.9915H37.2921V33.125H31.7694ZM41.5694 25.5312V24.3977H48.3237V25.5312H45.6007V33.125H44.2882V25.5312H41.5694ZM54.133 24.3977V33.125H52.8162V24.3977H54.133ZM66.2992 27.2358H64.9696C64.9185 26.9517 64.8233 26.7017 64.6841 26.4858C64.5449 26.2699 64.3745 26.0866 64.1728 25.9361C63.9711 25.7855 63.7452 25.6719 63.4952 25.5952C63.248 25.5185 62.9853 25.4801 62.7069 25.4801C62.204 25.4801 61.7537 25.6065 61.356 25.8594C60.9611 26.1122 60.6486 26.483 60.4185 26.9716C60.1912 27.4602 60.0776 28.0568 60.0776 28.7614C60.0776 29.4716 60.1912 30.071 60.4185 30.5597C60.6486 31.0483 60.9625 31.4176 61.3603 31.6676C61.758 31.9176 62.2054 32.0426 62.7026 32.0426C62.9782 32.0426 63.2395 32.0057 63.4867 31.9318C63.7367 31.8551 63.9625 31.7429 64.1642 31.5952C64.3659 31.4474 64.5364 31.267 64.6756 31.054C64.8176 30.8381 64.9157 30.5909 64.9696 30.3125L66.2992 30.3168C66.2282 30.7457 66.0904 31.1406 65.8858 31.5014C65.6841 31.8594 65.4242 32.169 65.106 32.4304C64.7907 32.6889 64.4299 32.8892 64.0236 33.0312C63.6174 33.1733 63.1742 33.2443 62.6941 33.2443C61.9384 33.2443 61.2651 33.0653 60.6742 32.7074C60.0833 32.3466 59.6174 31.831 59.2765 31.1605C58.9384 30.4901 58.7694 29.6903 58.7694 28.7614C58.7694 27.8295 58.9398 27.0298 59.2807 26.3622C59.6216 25.6918 60.0875 25.1776 60.6784 24.8196C61.2694 24.4588 61.9412 24.2784 62.6941 24.2784C63.1571 24.2784 63.589 24.3452 63.9895 24.4787C64.3929 24.6094 64.7551 24.8026 65.0762 25.0582C65.3972 25.3111 65.6628 25.6207 65.873 25.9872C66.0833 26.3509 66.2253 26.767 66.2992 27.2358ZM71.5534 33.125H70.1557L73.2963 24.3977H74.8176L77.9583 33.125H76.5605L74.0932 25.983H74.025L71.5534 33.125ZM71.7878 29.7074H76.3219V30.8153H71.7878V29.7074Z" fill="#595451"/>
</svg>
